<svg xmlns="http://www.w3.org/2000/svg" version="1.1" xmlns:xlink="http://www.w3.org/1999/xlink" xmlns:svgjs="http://svgjs.dev/svgjs" width="1440" height="800" preserveAspectRatio="none" viewBox="0 0 1440 800"><g mask="url(&quot;#SvgjsMask1020&quot;)" fill="none"><rect width="1440" height="800" x="0" y="0" fill="#0e2a47"></rect><path d="M0,589.875C113.672,592.586,227.147,563.755,322.316,501.533C417.053,439.594,479.396,343.229,531.185,242.584C585.07,137.865,648.548,25.623,626.76,-90.114C605.177,-204.763,513.467,-295.471,417.427,-361.702C333.723,-419.425,227.292,-414.66,127.545,-434.379C37.893,-452.102,-51.173,-498.621,-138.473,-471.597C-225.416,-444.684,-266.024,-349.414,-335.78,-290.955C-422.664,-218.142,-556.075,-191.167,-598.522,-86.054C-642.16,22.01,-607.844,149.551,-555.767,253.81C-504.609,356.229,-410.552,427.153,-312.585,486.392C-216.723,544.358,-111.993,587.204,0,589.875" fill="#0b2239"></path><path d="M1440 1240.722C1528.213 1245.16 1622.24 1246.937 1696.1680000000001 1198.605 1769.903 1150.4 1789.694 1055.6399999999999 1836.884 981.251 1893.109 892.619 2006.67 824.223 2000.118 719.467 1993.618 615.548 1886.826 548.398 1805.7269999999999 483.096 1735.5520000000001 426.59 1653.886 390.929 1566.232 370.092 1482.242 350.126 1398.717 361.003 1312.523 365.853 1199.479 372.214 1071.624 334.035 981.81 402.976 890.771 472.857 858.134 601.321 856.272 716.073 854.509 824.716 906.65 926.889 971.8969999999999 1013.775 1028.783 1089.527 1114.636 1132.308 1199.879 1173.636 1276.205 1210.6399999999999 1355.284 1236.46 1440 1240.722" fill="#113255"></path></g><defs><mask id="SvgjsMask1020"><rect width="1440" height="800" fill="#ffffff"></rect></mask></defs></svg>