<?xml version="1.0" encoding="utf-8"?>
<!-- Generator: Adobe Illustrator 27.5.0, SVG Export Plug-In . SVG Version: 6.00 Build 0)  -->
<svg version="1.1" xmlns="http://www.w3.org/2000/svg" xmlns:xlink="http://www.w3.org/1999/xlink" x="0px" y="0px"
	 viewBox="0 0 1100 800" style="enable-background:new 0 0 1100 800;" xml:space="preserve">
<g id="background">
	<rect style="fill:#FFFFFF;" width="1100" height="800"/>
</g>
<g id="shadow">
	<g id="XMLID_113_">
		<path style="fill:#F8EEEE;" d="M837.17,559.311c30.72,1.953,61.548-1.078,92.215,2.512c15.083,1.766,30.615,4.81,44.125,12.051
			c4.984,2.671,13.642,6.836,14.777,12.892c1.218,6.502-5.25,8.805-5.779,14.649c-0.358,3.953,4.38,9.57,4.87,14.089
			c1.031,9.515-3.73,18.129-9.194,25.519c-10.246,13.856-30.981,25.568-35.903,42.672c-1.83,6.361-2.285,13.436-4.835,19.341
			c-14.236,32.971-52.465,23.609-75.878,25.603c-46.978,4.001-94.166,4.765-141.292,5.123
			c-106.903,0.813-213.809-0.544-320.69-2.652c-31.807-0.627-63.635-1.678-95.46-2.424c-18.624-0.437-37.246-0.769-55.863-0.851
			c-27.939-0.123-60.098,6.624-86.515-8.807c-46.152-26.958,13.231-53.247,1.649-83.155c-0.004-0.009-0.007-0.019-0.011-0.028
			c-5.122-13.188-26.255-14.771-35.663-18.065c-4.337-1.518-8.922-3.233-11.958-7.628c-16.121-23.337,18.4-48.139,31.472-51.414
			c26.529-6.648,55.414-3.421,82.286-3.925C432.264,551.009,635.551,546.493,837.17,559.311z"/>
	</g>
</g>
<g id="object">
	<g>
		<g id="XMLID_900_">
			<g id="XMLID_914_">
				<path style="fill:none;" d="M271.082,251.348c-0.774,1.236-0.932,3.262-0.782,5.588
					C270.561,255.073,270.821,253.21,271.082,251.348z"/>
			</g>
			<g id="XMLID_913_">
				<polygon points="224.598,662.012 224.013,664.447 222.069,672.526 236.283,684.492 246.306,678.357 240.171,668.334 
					239.544,667.806 239.048,668.701 				"/>
			</g>
			<g id="XMLID_912_">
				<path style="fill:#292949;" d="M282.134,448.458c-7.336,1.92-14.777,4.454-21.141,8.694c-2.984,1.988-5.509,4.344-8.036,6.722
					l5.58,89.322L223.794,661.64l0.805,0.372l1.358-5.644l13.587,11.438l68.895-124.234l3.071-14.798l-19.711-82.66
					C288.557,446.825,285.331,447.602,282.134,448.458z"/>
			</g>
			<g id="XMLID_911_">
				<polygon style="fill:#292949;" points="224.598,662.012 239.048,668.701 239.544,667.806 225.957,656.368 				"/>
			</g>
			<g id="XMLID_910_">
				<path style="fill:#292949;" d="M316.74,503.568l-5.231,25.207l2.243,9.407l18.374,125.212l0.088-0.006l-0.126-1.825l15.51-1.071
					l10.379-135.958l-6.64-82.309c-3.623-0.126-20.036-0.644-31.42-0.1L316.74,503.568z"/>
			</g>
			<g id="XMLID_909_">
				<path style="fill:#292949;" d="M319.918,442.126c-1.515,0.073-2.946,0.163-4.24,0.276c-8.013,0.703-16.002,1.986-23.879,3.712
					l19.711,82.66l5.231-25.207L319.918,442.126z"/>
			</g>
			<g id="XMLID_908_">
				<polygon points="332.215,663.388 332.661,669.853 349.813,676.997 357.53,668.136 348.668,660.418 347.599,660.492 
					347.458,662.335 				"/>
			</g>
			<g id="XMLID_907_">
				<polygon points="332.215,663.388 347.458,662.335 347.599,660.492 332.089,661.563 				"/>
			</g>
			<g id="XMLID_906_">
				<path style="fill:#EFBBBB;" d="M293.643,284.143c0.441-2.209,0.905-4.354,2.691-5.573c1.623-1.107,3.789-0.968,5.596-1.739
					c3.403-1.452,4.628-5.561,5.452-9.167c0.717-3.136,1.433-6.271,2.15-9.407c0.323-1.412,0.641-2.867,0.813-4.318
					c-5.437-1.615-10.644-4.902-16.275-5.907c-6.317-1.127-17.812-2.643-22.697,2.917c-0.106,0.121-0.202,0.256-0.292,0.399
					c-0.261,1.863-0.521,3.725-0.782,5.588c0.335,5.186,2.204,11.866,2.219,14.634c-0.772-0.199-1.529-0.491-2.272-0.845
					c1.797,2.507,5.293,3.906,8.41,4.891c-0.44,3.794-0.577,7.624-0.408,11.44c0.184,0.012,0.367,0.025,0.551,0.037
					c4.997-0.996,10.024-1.812,14.397-2.848C293.346,284.209,293.494,284.177,293.643,284.143z"/>
			</g>
			<g id="XMLID_905_">
				<path style="fill:#1E232D;" d="M269.268,264.314c0.344-2.459,0.688-4.919,1.032-7.378c-0.15-2.326,0.008-4.351,0.782-5.588
					c0.155-1.108,0.31-2.217,0.465-3.325c0.263-1.878,0.544-3.812,1.509-5.445c1.692-2.866,5.112-4.205,8.37-4.879
					c8.316-1.72,17.487-0.201,24.147,5.067c1.772,1.402,3.389,3.105,4.218,5.207c0.747,1.894,0.795,3.926,0.553,5.966
					c1.216,0.361,2.443,0.641,3.689,0.79c4.906,0.588,11.06-2.006,15.131-4.663c5.023-3.281,7.116-12.442,9.956-17.461
					c0.778-1.375,1.621-2.705,2.572-3.957c2.06-2.712,4.629-5.064,6.26-8.053c1.631-2.99,2.111-6.987-0.047-9.623
					c-1.392-1.701-3.589-2.503-5.716-3.055c-7.01-1.82-14.509-1.718-21.467,0.293c-6.627,1.915-12.517,4.924-19.324,2.628
					c-6.396-2.157-10.929-1.049-17.459,1.52c-7.066,2.78-16.642,3.69-22.996,7.498c-2.653,1.59-4.734,4.009-6.331,6.659
					c-5.533,9.179-5.167,21.579,0.898,30.415c1.361,1.983,2.971,3.783,4.656,5.497c2.914,2.964,6.311,6.505,10.078,8.297
					c-0.517-0.722-0.901-1.53-1.086-2.453C268.901,266.971,269.084,265.627,269.268,264.314z"/>
			</g>
			<g id="XMLID_904_">
				<path style="fill:#1E232D;" d="M270.3,256.935c-0.344,2.459-0.688,4.919-1.032,7.378c-0.184,1.314-0.367,2.657-0.107,3.958
					c0.185,0.923,0.568,1.732,1.086,2.453c0.744,0.354,1.5,0.646,2.272,0.845C272.504,268.801,270.635,262.122,270.3,256.935z"/>
			</g>
			<g id="XMLID_903_">
				<path style="fill:#1E232D;" d="M309.791,247.973c-0.829-2.102-2.446-3.805-4.218-5.207c-6.66-5.269-15.831-6.788-24.147-5.067
					c-3.259,0.674-6.678,2.014-8.37,4.879c-0.964,1.633-1.246,3.567-1.509,5.445c-0.155,1.108-0.31,2.217-0.465,3.325
					c0.09-0.143,0.185-0.278,0.292-0.399c4.884-5.56,16.38-4.044,22.697-2.917c5.631,1.005,10.838,4.292,16.275,5.907
					C310.587,251.9,310.538,249.867,309.791,247.973z"/>
			</g>
			<g id="XMLID_902_">
				<polygon style="fill:#EFBBBB;" points="207.191,221.907 209.973,214.94 208.796,213.601 207.088,214.983 207.742,208.539 
					204.815,204.173 197.824,203.964 191.993,208.234 192.521,215.198 197.21,222.054 198.302,224.807 208.155,224.059 				"/>
			</g>
			<g id="XMLID_901_">
				<path style="fill:#5D66D3;" d="M413.198,406.403c-2.811-3.508-11.665-5.374-15.735-7.367
					c-9.091-4.452-17.893-9.643-25.77-16.063c-11.196-9.125-13.547-21.288-19.344-34.562c-2.926-6.701,47.259,16.646,45.305,9.601
					c-0.706-2.547-2.41-31.359-2.41-31.359L324.1,278.375l0.011,2.287c-0.075-0.754-0.089-1.515-0.011-2.287
					c-10.086,4.839-20.069,3.415-30.457,5.768c-0.149,0.034-0.297,0.065-0.446,0.101c-4.373,1.036-9.4,1.851-14.397,2.848
					c-5.593,1.115-11.148,2.458-15.708,4.604c-1.401,0.659-2.687,1.535-3.872,2.575l-31.279-23.672l-15.734-46.848l-4.051,0.308
					l-9.852,0.748l-3.538,0.269l13.597,75.823l33.286,40.128c-1.317,8.193-2.343,16.342-2.728,21.047
					c-0.962,11.747-1.791,23.508-2.254,35.287c-0.517,13.145-0.586,26.318,0.115,39.46c0.078,1.46,0.143,5.56,0.381,10.461
					c0.5,10.315,1.762,24.175,5.505,24.427c0.701,0.047,1.342-0.365,1.925-0.761c3.131-2.125,5.749-4.611,8.365-7.073
					c2.527-2.378,5.052-4.735,8.036-6.722c6.365-4.24,13.805-6.774,21.141-8.694c3.197-0.855,6.422-1.633,9.664-2.343
					c7.878-1.726,15.867-3.009,23.879-3.712c1.294-0.114,2.725-0.204,4.24-0.276c11.384-0.545,27.797-0.027,31.42,0.1
					c0.47,0.016,0.737,0.027,0.737,0.027c6.826-1.717,13.254-4.713,19.712-7.526c11.095-4.833,22.465-9.201,32.747-15.607
					C407.833,417.064,416.91,411.036,413.198,406.403z"/>
			</g>
		</g>
		<g id="XMLID_885_">
			<g id="XMLID_889_">
				<g id="XMLID_899_">
					<polygon style="fill:#8CABEF;" points="881.421,492.062 863.644,571.026 847.301,664.98 830.775,664.98 824.016,436.379 
						878.659,437.371 					"/>
				</g>
				<g id="XMLID_897_">
					<g id="XMLID_898_">
						<polygon style="fill:#8CABEF;" points="776.797,487.233 774.503,563.886 797.586,664.98 812.423,664.98 813.939,558.368 
							830.168,471.114 834.204,443.261 788.709,437.894 						"/>
					</g>
				</g>
				<g id="XMLID_896_">
					<polygon style="fill:#DDDAE8;" points="812.787,281.022 861.801,279.852 890.002,328.84 880.118,382.207 890.002,441.29 
						808.403,442.403 785.398,438.668 791.507,375.37 788.004,290.814 					"/>
				</g>
				<g id="XMLID_895_">
					<polygon style="fill:#DDDAE8;" points="810.336,313.047 784.805,364.085 762.468,375.825 709.568,397.019 708.859,379.378 
						760.475,344.807 788.004,290.814 					"/>
				</g>
				<g id="XMLID_890_">
					<g id="XMLID_894_">
						<path style="fill:#B77B70;" d="M815.519,236.542c7.823-22.744,37.848-14.22,44.038,6.031
							c4.038,13.21-6.164,30.353-19.852,34.147c-0.06,0.52-0.106,1.006-0.107,1.418c-0.01,2.12-0.271,4.211-0.585,6.33
							c-0.117,0.79-12.096-1.512-13.432-1.775c-0.467-0.092-0.989-0.219-1.24-0.611c-0.483-0.752,0.303-2.967,0.39-3.803
							c0.104-0.987,0.207-1.973,0.311-2.96c-6.752-3.296-11.012-10.315-12.202-17.461
							C811.644,250.678,813.168,243.376,815.519,236.542z"/>
					</g>
					<g id="XMLID_891_">
						<g id="XMLID_893_">
							<path style="fill:#292949;" d="M835.108,215.99c1.61,1.634,2.243,3.914,2.707,6.104c0.277,1.307,0.516,2.66,0.236,3.954
								c-1.116,5.163-6.236,4.893-10.196,6.557c-4.884,2.052-9.095,5.831-11.83,10.182c-4.282,6.814-2.356,15.582-0.619,23.098
								c0.612,2.648,1.844,6.586-0.211,8.949c-2.087,2.401-6.912,2.03-9.412,0.795c-2.284-1.129-4.16-3.216-6.669-3.636
								c-2.655-0.445-6.243,0.723-7.478-1.713c-0.344-0.678-0.376-1.506-0.81-2.126c-1.467-2.098-5.116,0.359-7.182-1.12
								c-1.272-0.91-1.263-2.848-0.833-4.382c0.43-1.534,1.154-3.088,0.855-4.648c-0.258-1.341-1.225-2.401-1.823-3.621
								c-1.181-2.41-0.773-5.548,0.985-7.583c3.269-3.783,9.595-3.065,13.098-6.624c1.825-1.854,2.532-4.528,3.212-7.058
								c0.68-2.53,1.497-5.199,3.447-6.913c2.41-2.118,5.889-1.758,8.266-4.271c1.397-1.476,2.328-3.398,3.896-4.682
								c2.066-1.693,6.106-2.995,8.676-3.859C827.502,212.024,832.061,212.896,835.108,215.99z"/>
						</g>
						<g id="XMLID_892_">
							<path style="fill:#292949;" d="M854.1,252.284c0.14,7.486-3.579,15.579-0.13,22.168c3.48,6.65,12.155,7.848,19.549,8.195
								c1.216,0.057,16.82,1.405,16.887,1.109c1.168-5.214,2.377-10.532,5.102-15.11c2.725-4.579,7.282-8.372,12.5-8.697
								c-1.506-0.261-2.265-2.104-2.091-3.659c0.174-1.554,0.979-2.956,1.444-4.449c1.143-3.669,0.031-7.95-2.736-10.528
								c-5.52-5.145-15.528-3.008-20.259-8.917c-2.934-3.664-2.585-8.979-4.122-13.452c-2.973-8.65-12.443-10.459-19.521-14.366
								c-7.472-4.123-14.507-6.383-23.131-4.946c-10.69,1.782-18.637,12.665-14.514,22.907
								c5.288,13.136,26.429,12.003,30.388,25.341C853.89,249.313,854.072,250.787,854.1,252.284z"/>
						</g>
					</g>
				</g>
			</g>
			<g id="XMLID_888_">
				<polygon style="fill:#F7F7F7;" points="847.301,280.741 832.096,302.232 824.948,301.647 813.034,279.852 				"/>
			</g>
			<g id="XMLID_887_">
				<polygon style="fill:#292949;" points="830.775,664.98 821.969,676.308 830.168,685.275 841.669,675.128 847.301,664.98 				"/>
			</g>
			<g id="XMLID_886_">
				<polygon style="fill:#292949;" points="796.425,664.98 787.619,676.308 795.819,685.275 807.32,675.128 812.952,664.98 				"/>
			</g>
		</g>
		<g id="XMLID_878_">
			<g id="XMLID_879_">
				<g id="XMLID_881_">
					<g id="XMLID_884_">
						<path style="fill:#292949;" d="M730.617,640.069l-331.331,25.466c-7.139,0.549-13.362-4.691-13.901-11.704l-40.986-533.247
							c-0.539-7.013,4.811-13.142,11.95-13.691L687.68,81.427c7.139-0.549,13.362,4.691,13.901,11.704l40.986,533.247
							C743.105,633.391,737.756,639.52,730.617,640.069z"/>
					</g>
					<g id="XMLID_883_">
						
							<rect x="382.004" y="123.124" transform="matrix(0.9971 -0.0766 0.0766 0.9971 -26.1754 42.6214)" style="fill:#DDDAE8;" width="320.508" height="478.493"/>
					</g>
					<g id="XMLID_882_">
						
							<rect x="543.828" y="623.282" transform="matrix(0.9971 -0.0766 0.0766 0.9971 -46.4426 44.9922)" style="fill:#FFFFFF;" width="38.378" height="8.7"/>
					</g>
				</g>
				<g id="XMLID_880_" style="opacity:0.04;">
					<polygon points="369.231,202.333 400.81,613.194 720.376,588.632 					"/>
				</g>
			</g>
		</g>
		<g>
			<g>
				<path style="fill:#292949;" d="M443.84,252.28c-9.822,0.746-18.514-1.966-26.075-8.136c-7.56-6.17-11.715-14.18-12.462-24.035
					c-0.749-9.853,1.707-18.367,7.368-25.541c5.661-7.174,13.308-11.127,22.941-11.858c7.555-0.574,15.301,0.106,23.237,2.035
					l-0.941,3.872c-7.728-1.693-15.055-2.277-21.98-1.751c-8.249,0.626-14.76,4.098-19.536,10.413
					c-4.778,6.315-6.839,13.755-6.189,22.316c0.651,8.563,4.241,15.621,10.773,21.171c6.532,5.552,14.049,8.004,22.548,7.359
					c7.428-0.564,13.764-2.185,19.007-4.862l1.661,3.103c-2.288,1.567-5.338,2.875-9.153,3.924
					C451.226,251.339,447.491,252.003,443.84,252.28z"/>
				<path style="fill:#292949;" d="M440.731,253.917c-8.89,0-16.924-2.884-23.925-8.597c-7.86-6.414-12.239-14.857-13.016-25.095
					c-0.775-10.2,1.812-19.148,7.69-26.596c5.908-7.487,13.988-11.669,24.017-12.431c7.675-0.584,15.652,0.115,23.71,2.073
					c0.391,0.095,0.729,0.341,0.938,0.685c0.21,0.344,0.274,0.757,0.178,1.147l-0.941,3.872c-0.194,0.801-0.992,1.302-1.799,1.124
					c-7.549-1.653-14.798-2.233-21.54-1.72c-7.865,0.597-13.897,3.808-18.441,9.815c-4.524,5.98-6.504,13.142-5.886,21.286
					c0.616,8.106,4.062,14.879,10.243,20.13c6.186,5.257,13.406,7.614,21.451,7.002c7.192-0.546,13.393-2.127,18.432-4.701
					c0.735-0.375,1.637-0.094,2.028,0.635l1.661,3.103c0.365,0.682,0.158,1.53-0.48,1.968c-2.416,1.655-5.648,3.046-9.608,4.135
					c-3.892,1.071-7.757,1.757-11.487,2.041l0,0C442.869,253.876,441.794,253.917,440.731,253.917z M440.792,184.033
					c-1.703,0-3.391,0.063-5.065,0.19c-9.148,0.694-16.505,4.491-21.865,11.285c-5.391,6.831-7.763,15.07-7.047,24.486
					c0.712,9.377,4.718,17.106,11.909,22.974c7.214,5.887,15.63,8.513,25,7.799l0,0c3.537-0.268,7.208-0.921,10.912-1.94
					c3.022-0.832,5.554-1.836,7.551-2.992l-0.306-0.571c-5.137,2.374-11.266,3.843-18.243,4.373
					c-8.883,0.674-16.83-1.922-23.646-7.715c-6.821-5.795-10.624-13.268-11.304-22.212c-0.676-8.904,1.508-16.759,6.492-23.346
					c5.028-6.648,11.969-10.353,20.631-11.01c6.607-0.501,13.651-0.005,20.969,1.476l0.232-0.954
					C451.529,184.649,446.097,184.033,440.792,184.033z"/>
			</g>
			<g>
				<path style="fill:#292949;" d="M533.095,244.362l-2.567-33.81l-46.371,3.521l2.567,33.81l-4.533,0.344l-5.128-67.525
					l4.533-0.344l2.251,29.655l46.371-3.521l-2.251-29.655l4.533-0.344l5.128,67.526L533.095,244.362z"/>
				<path style="fill:#292949;" d="M482.191,249.745c-0.362,0-0.713-0.129-0.989-0.366c-0.305-0.262-0.494-0.635-0.524-1.036
					l-5.128-67.526c-0.063-0.835,0.562-1.564,1.398-1.628l4.533-0.344c0.409-0.03,0.799,0.1,1.104,0.362
					c0.305,0.262,0.494,0.635,0.524,1.036l2.136,28.142l43.345-3.291l-2.136-28.142c-0.064-0.836,0.562-1.564,1.398-1.628
					l4.533-0.344c0.409-0.031,0.799,0.1,1.104,0.362c0.305,0.262,0.494,0.635,0.524,1.036l5.128,67.525
					c0.063,0.835-0.563,1.564-1.398,1.628l-4.533,0.344c-0.403,0.032-0.799-0.1-1.104-0.362c-0.305-0.262-0.494-0.635-0.524-1.036
					l-2.452-32.297l-43.345,3.292l2.452,32.297c0.063,0.835-0.562,1.564-1.398,1.628l-4.533,0.344
					C482.267,249.744,482.229,249.745,482.191,249.745z M478.691,182.1l4.897,64.5l1.508-0.115l-2.452-32.297
					c-0.063-0.835,0.562-1.564,1.398-1.628l46.371-3.521c0.407-0.03,0.799,0.1,1.104,0.362c0.305,0.262,0.494,0.635,0.524,1.036
					l2.452,32.297L536,242.62l-4.898-64.5l-1.508,0.115l2.136,28.142c0.063,0.835-0.562,1.564-1.398,1.628l-46.371,3.521
					c-0.406,0.033-0.799-0.1-1.104-0.362c-0.305-0.262-0.494-0.635-0.524-1.036l-2.136-28.142L478.691,182.1z"/>
			</g>
			<g>
				<path style="fill:#292949;" d="M564.37,218.431l-7.949,24.16l-4.816,0.366l23.264-70.156l2.644-0.201l33.684,65.831l-5.1,0.387
					l-11.506-22.682L564.37,218.431z M576.481,180.277c-0.059,0.068-0.156,0.456-0.292,1.162c-0.676,2.775-1.352,5.136-2.026,7.088
					l-8.481,25.91l27.01-2.051l-12.29-24.238C577.835,183.531,576.529,180.907,576.481,180.277z"/>
				<path style="fill:#292949;" d="M551.605,244.474c-0.465,0-0.907-0.214-1.196-0.583c-0.312-0.4-0.404-0.93-0.244-1.412
					l23.264-70.156c0.193-0.581,0.715-0.989,1.325-1.035l2.644-0.201c0.613-0.049,1.187,0.277,1.466,0.822l33.684,65.831
					c0.231,0.452,0.221,0.99-0.028,1.433c-0.248,0.443-0.702,0.732-1.208,0.771l-5.099,0.387c-0.62,0.043-1.191-0.28-1.468-0.827
					l-11.048-21.779l-28.202,2.142l-7.633,23.197c-0.192,0.582-0.715,0.993-1.326,1.039l-4.816,0.366
					C551.681,244.472,551.643,244.474,551.605,244.474z M556.421,242.591h0.006H556.421z M575.99,174.237l-22.228,67.034
					l1.534-0.117l7.633-23.197c0.192-0.583,0.715-0.992,1.326-1.039l30.221-2.295c0.612-0.05,1.191,0.28,1.468,0.827l11.048,21.779
					l1.815-0.138l-32.186-62.902L575.99,174.237z M565.682,215.954c-0.464,0-0.905-0.213-1.193-0.581
					c-0.313-0.399-0.406-0.927-0.248-1.409l8.481-25.91c0.662-1.918,1.327-4.245,1.985-6.94c0.215-1.106,0.326-1.484,0.631-1.834
					c0.401-0.462,1.041-0.636,1.622-0.443c0.559,0.186,0.958,0.676,1.028,1.257c0.073,0.284,0.563,1.602,3.741,7.317l12.317,24.289
					c0.229,0.452,0.218,0.989-0.031,1.431c-0.249,0.442-0.702,0.73-1.207,0.768l-27.01,2.051
					C565.758,215.953,565.72,215.954,565.682,215.954z M576.878,184.836c-0.427,1.553-0.855,2.953-1.281,4.186l-7.767,23.73
					l22.481-1.708l-11.262-22.211C578.134,187.189,577.426,185.881,576.878,184.836z M577.99,180.119
					c0.002,0.014,0.003,0.029,0.004,0.043C577.993,180.15,577.992,180.135,577.99,180.119z"/>
			</g>
			<g>
				<path style="fill:#292949;" d="M625.638,173.41l-22.854,1.735l-0.301-3.967l50.242-3.815l0.301,3.967l-22.855,1.735
					l4.826,63.558l-4.533,0.344L625.638,173.41z"/>
				<path style="fill:#292949;" d="M630.464,238.486c-0.362,0-0.713-0.129-0.989-0.366c-0.305-0.262-0.494-0.635-0.524-1.036
					l-4.711-62.046l-21.342,1.621c-0.403,0.032-0.799-0.1-1.104-0.362c-0.305-0.262-0.494-0.635-0.524-1.036l-0.301-3.967
					c-0.063-0.835,0.562-1.564,1.398-1.628l50.242-3.815c0.409-0.029,0.799,0.1,1.104,0.362c0.305,0.262,0.494,0.635,0.524,1.036
					l0.301,3.967c0.063,0.835-0.562,1.564-1.398,1.628l-21.342,1.62l4.711,62.046c0.063,0.835-0.562,1.564-1.398,1.628l-4.533,0.344
					C630.54,238.484,630.502,238.486,630.464,238.486z M625.639,171.892c0.786,0,1.451,0.606,1.511,1.402l4.711,62.046l1.507-0.115
					l-4.711-62.046c-0.03-0.401,0.1-0.798,0.362-1.104c0.262-0.305,0.635-0.494,1.036-0.524l21.342-1.62l-0.071-0.941l-47.217,3.585
					l0.071,0.941l21.341-1.621C625.562,171.894,625.601,171.892,625.639,171.892z"/>
			</g>
		</g>
		<g id="XMLID_863_">
			<g id="XMLID_871_">
				<g id="XMLID_872_">
					<g id="XMLID_877_">
						<path style="fill:#D34E4E;" d="M411.654,371.962c-3.116-34.708,34.217-66.423,83.387-70.838
							c49.17-4.415,91.556,20.143,94.672,54.851c3.116,34.708-34.217,66.423-83.387,70.838c-2.534,0.227-5.049,0.374-7.543,0.45
							l12.322,44.372l-54.685-50.785C431.281,411.774,413.623,393.897,411.654,371.962z"/>
					</g>
					<g id="XMLID_873_">
						<g id="XMLID_876_">
							<path style="fill:#F5F2E8;" d="M539.248,368.258c-5.135,0.461-5.86-7.518-0.717-7.98
								C543.667,359.817,544.392,367.796,539.248,368.258z"/>
						</g>
						<g id="XMLID_875_">
							<path style="fill:#F5F2E8;" d="M503.337,371.482c-5.135,0.461-5.86-7.518-0.716-7.98
								C507.755,363.041,508.48,371.021,503.337,371.482z"/>
						</g>
						<g id="XMLID_874_">
							<path style="fill:#F5F2E8;" d="M458.448,375.513c-5.135,0.461-5.86-7.518-0.716-7.98
								C462.867,367.071,463.592,375.051,458.448,375.513z"/>
						</g>
					</g>
				</g>
			</g>
			<g id="XMLID_864_">
				<g id="XMLID_865_">
					<g id="XMLID_870_">
						<path style="fill:#3B3387;" d="M681.195,422.015c-2.059-30.915-39.232-53.611-83.028-50.694s-77.63,30.343-75.57,61.258
							c2.059,30.915,39.232,53.611,83.028,50.694c2.257-0.15,4.487-0.369,6.687-0.647l4.832,28.563l24.648-35.863
							C666.419,466.685,682.497,441.552,681.195,422.015z"/>
					</g>
					<g id="XMLID_866_">
						<g id="XMLID_869_">
							<path style="fill:#F5F2E8;" d="M568.618,436.394c4.574-0.305,4.108-7.413-0.474-7.108
								C563.571,429.59,564.037,436.699,568.618,436.394z"/>
						</g>
						<g id="XMLID_868_">
							<path style="fill:#F5F2E8;" d="M600.604,434.263c4.574-0.305,4.108-7.413-0.474-7.108
								C595.557,427.46,596.023,434.568,600.604,434.263z"/>
						</g>
						<g id="XMLID_867_">
							<path style="fill:#F5F2E8;" d="M640.587,431.6c4.574-0.305,4.108-7.413-0.474-7.108
								C635.539,424.796,636.005,431.905,640.587,431.6z"/>
						</g>
					</g>
				</g>
			</g>
		</g>
		<g id="XMLID_860_">
			<g id="XMLID_862_">
				<polygon style="fill:#B77B70;" points="736.679,407.304 721.946,408.931 721.318,414.02 712.065,420.341 715.992,426.28 
					735.09,420.177 				"/>
			</g>
			<g id="XMLID_861_">
				<polygon style="fill:#E6E4ED;" points="890.002,328.84 836.66,384.986 812.512,394.107 733.939,422.265 735.429,404.266 
					814.375,362.366 859.764,279.707 880.595,291.163 				"/>
			</g>
		</g>
	</g>
</g>
</svg>
